# xmcd
#
# Track frame offsets: 
#        150
#        19035
#        33507
#        46240
#        57297
#        70767
#        80425
#        92600
#        104320
#        117350
#        131202
#        145222
#        157292
#        170880
#        188555
#
# Disc length: 2759 seconds
#
# Revision: 2
# Processed by: cddbd v1.5.2PL0 Copyright (c) Steve Scherf et al.
# Submitted via: ExactAudioCopy v0.99pb5
#
DISCID=d10ac50f
DTITLE=Various Artist - Classic Country Vol. 19 The '70s Treasures Disc 1
DYEAR=1999
DGENRE=Country
TTITLE0=Waylon Jennings - I've Always Been Crazy
TTITLE1=Moe Bandy - Hank Williams You Wrote My Life
TTITLE2=Gary Stewart - She's Actin' Single
TTITLE3=Donna Fargo - Superman
TTITLE4=Oak Ridge Boys - You're The One
TTITLE5=Johnny Rodriguez - Ridin' My Thumb To Mexico
TTITLE6=Conway Twitty And Loretta Lynn - As Soon As I Hang Up The Phon
TTITLE6=e
TTITLE7=Marty Robbins - Among My Souvenirs
TTITLE8=Mel Tellis - Good Woman Blues
TTITLE9=Jim Ed Brown And Helen Cornelius - I Don't Want To Have To Mar
TTITLE9=ry You
TTITLE10=John Conlee - Lady Lay Down
TTITLE11=Tammy Wynette - Til I Get It Right
TTITLE12=Ronnie Milsap - (I'm A) Stand By My Woman Man
TTITLE13=Linda Ronstadt - Blue Bayou
TTITLE14=Cledus Maggard And The Citizen's Band - The White Knight
EXTD=
EXTT0=
EXTT1=
EXTT2=
EXTT3=
EXTT4=
EXTT5=
EXTT6=
EXTT7=
EXTT8=
EXTT9=
EXTT10=
EXTT11=
EXTT12=
EXTT13=
EXTT14=
PLAYORDER=
